<svg width="310" height="32" viewBox="0 0 310 32" fill="none" xmlns="http://www.w3.org/2000/svg">
<path d="M301.682 24.8325C299.719 24.8325 297.991 24.4352 296.498 23.6406C295.026 22.846 293.885 21.7644 293.075 20.3958C292.264 19.0052 291.859 17.427 291.859 15.6611C291.859 13.8732 292.254 12.295 293.043 10.9264C293.853 9.53584 294.952 8.45426 296.338 7.6817C297.725 6.88706 299.293 6.48975 301.042 6.48975C302.727 6.48975 304.241 6.86499 305.585 7.61548C306.95 8.34389 308.027 9.4034 308.817 10.794C309.606 12.1625 310 13.807 310 15.7274C310 15.926 309.99 16.1578 309.968 16.4227C309.947 16.6655 309.926 16.8972 309.904 17.118H295.922V14.105H307.281L305.361 14.9989C305.361 14.0719 305.18 13.2662 304.817 12.5819C304.454 11.8977 303.953 11.3679 303.313 10.9927C302.673 10.5954 301.927 10.3967 301.074 10.3967C300.22 10.3967 299.463 10.5954 298.802 10.9927C298.162 11.3679 297.661 11.9087 297.298 12.615C296.936 13.2993 296.754 14.116 296.754 15.0652V15.8598C296.754 16.831 296.957 17.6919 297.362 18.4424C297.789 19.1708 298.375 19.7336 299.122 20.131C299.89 20.5062 300.786 20.6938 301.81 20.6938C302.727 20.6938 303.527 20.5504 304.209 20.2634C304.913 19.9764 305.553 19.546 306.129 18.9721L308.785 21.952C307.995 22.8791 307.003 23.5964 305.809 24.1041C304.614 24.5897 303.239 24.8325 301.682 24.8325Z" fill="#333333"/>
<path d="M278.83 31.2558C277.209 31.2558 275.641 31.0461 274.127 30.6267C272.634 30.2294 271.386 29.6224 270.383 28.8057L272.367 25.0974C273.092 25.7155 274.01 26.2011 275.119 26.5542C276.249 26.9295 277.358 27.1171 278.446 27.1171C280.217 27.1171 281.497 26.7088 282.286 25.8921C283.096 25.0753 283.502 23.8613 283.502 22.25V19.5681L283.822 15.0983L283.758 10.5954V6.75462H288.493V21.5878C288.493 24.8988 287.661 27.3378 285.997 28.905C284.333 30.4722 281.944 31.2558 278.83 31.2558ZM278.062 23.7068C276.463 23.7068 275.012 23.3536 273.711 22.6473C272.431 21.9189 271.397 20.9146 270.607 19.6343C269.84 18.332 269.456 16.82 269.456 15.0983C269.456 13.3545 269.84 11.8425 270.607 10.5622C271.397 9.25993 272.431 8.2556 273.711 7.54926C275.012 6.84292 276.463 6.48975 278.062 6.48975C279.513 6.48975 280.793 6.79877 281.902 7.41682C283.011 8.01279 283.875 8.9509 284.493 10.2311C285.112 11.4893 285.421 13.1117 285.421 15.0983C285.421 17.0628 285.112 18.6852 284.493 19.9654C283.875 21.2236 283.011 22.1617 281.902 22.7797C280.793 23.3978 279.513 23.7068 278.062 23.7068ZM279.054 19.4688C279.929 19.4688 280.707 19.2922 281.39 18.939C282.072 18.5638 282.606 18.045 282.99 17.3828C283.374 16.7207 283.566 15.9591 283.566 15.0983C283.566 14.2154 283.374 13.4538 282.99 12.8137C282.606 12.1515 282.072 11.6438 281.39 11.2907C280.707 10.9154 279.929 10.7278 279.054 10.7278C278.18 10.7278 277.401 10.9154 276.719 11.2907C276.036 11.6438 275.492 12.1515 275.087 12.8137C274.703 13.4538 274.511 14.2154 274.511 15.0983C274.511 15.9591 274.703 16.7207 275.087 17.3828C275.492 18.045 276.036 18.5638 276.719 18.939C277.401 19.2922 278.18 19.4688 279.054 19.4688Z" fill="#333333"/>
<path d="M258.951 6.48975C260.316 6.48975 261.532 6.7767 262.598 7.3506C263.686 7.90243 264.539 8.76328 265.158 9.93316C265.777 11.081 266.086 12.5599 266.086 14.3699V24.5677H261.095V15.1645C261.095 13.7297 260.785 12.6702 260.167 11.986C259.569 11.3017 258.716 10.9596 257.607 10.9596C256.818 10.9596 256.103 11.1361 255.463 11.4893C254.845 11.8204 254.354 12.3391 253.992 13.0455C253.65 13.7518 253.48 14.6568 253.48 15.7605V24.5677H248.488V6.75462H253.256V11.688L252.36 10.198C252.978 9.00609 253.864 8.09005 255.015 7.44993C256.167 6.80981 257.479 6.48975 258.951 6.48975Z" fill="#333333"/>
<path d="M239.299 24.5677V21.0911L238.98 20.3296V14.105C238.98 13.0013 238.649 12.1405 237.988 11.5224C237.348 10.9044 236.356 10.5954 235.012 10.5954C234.095 10.5954 233.188 10.7499 232.292 11.0589C231.418 11.3458 230.671 11.7432 230.053 12.2508L228.261 8.64188C229.2 7.95761 230.33 7.42785 231.653 7.05261C232.975 6.67737 234.319 6.48975 235.684 6.48975C238.308 6.48975 240.345 7.12987 241.795 8.41011C243.246 9.69035 243.971 11.688 243.971 14.403V24.5677H239.299ZM234.052 24.8325C232.708 24.8325 231.557 24.6008 230.597 24.1372C229.637 23.6516 228.901 23.0005 228.389 22.1838C227.877 21.3671 227.621 20.451 227.621 19.4357C227.621 18.3761 227.866 17.4491 228.357 16.6544C228.869 15.8598 229.669 15.2418 230.757 14.8003C231.845 14.3368 233.263 14.105 235.012 14.105H239.587V17.118H235.556C234.383 17.118 233.572 17.3166 233.124 17.7139C232.698 18.1113 232.484 18.6079 232.484 19.2039C232.484 19.8661 232.73 20.3958 233.22 20.7932C233.732 21.1684 234.425 21.356 235.3 21.356C236.132 21.356 236.878 21.1574 237.54 20.76C238.201 20.3407 238.681 19.7336 238.98 18.939L239.747 21.3229C239.385 22.4707 238.724 23.3426 237.764 23.9386C236.804 24.5346 235.567 24.8325 234.052 24.8325Z" fill="#333333"/>
<path d="M205.721 24.5674V1.39062H215.416C217.421 1.39062 219.149 1.73276 220.599 2.41703C222.05 3.07922 223.169 4.0394 223.959 5.29758C224.748 6.55575 225.142 8.05672 225.142 9.8005C225.142 11.5222 224.748 13.0121 223.959 14.2703C223.169 15.5064 222.05 16.4556 220.599 17.1178C219.149 17.7799 217.421 18.111 215.416 18.111H208.601L210.904 15.7603V24.5674H205.721ZM219.959 24.5674L214.36 16.1576H219.895L225.558 24.5674H219.959ZM210.904 16.3562L208.601 13.8399H215.128C216.728 13.8399 217.922 13.4867 218.711 12.7804C219.501 12.052 219.895 11.0587 219.895 9.8005C219.895 8.52026 219.501 7.52697 218.711 6.82062C217.922 6.11428 216.728 5.76111 215.128 5.76111H208.601L210.904 3.21166V16.3562Z" fill="#333333"/>
<path d="M184.666 24.8325C182.704 24.8325 180.976 24.4352 179.483 23.6406C178.011 22.846 176.87 21.7644 176.06 20.3958C175.249 19.0052 174.844 17.427 174.844 15.6611C174.844 13.8732 175.238 12.295 176.028 10.9264C176.838 9.53584 177.937 8.45426 179.323 7.6817C180.71 6.88706 182.277 6.48975 184.026 6.48975C185.712 6.48975 187.226 6.86499 188.57 7.61548C189.935 8.34389 191.012 9.4034 191.801 10.794C192.591 12.1625 192.985 13.807 192.985 15.7274C192.985 15.926 192.975 16.1578 192.953 16.4227C192.932 16.6655 192.911 16.8972 192.889 17.118H178.907V14.105H190.266L188.346 14.9989C188.346 14.0719 188.165 13.2662 187.802 12.5819C187.439 11.8977 186.938 11.3679 186.298 10.9927C185.658 10.5954 184.912 10.3967 184.058 10.3967C183.205 10.3967 182.448 10.5954 181.787 10.9927C181.147 11.3679 180.646 11.9087 180.283 12.615C179.92 13.2993 179.739 14.116 179.739 15.0652V15.8598C179.739 16.831 179.942 17.6919 180.347 18.4424C180.774 19.1708 181.36 19.7336 182.107 20.131C182.875 20.5062 183.771 20.6938 184.794 20.6938C185.712 20.6938 186.511 20.5504 187.194 20.2634C187.898 19.9764 188.538 19.546 189.114 18.9721L191.769 21.952C190.98 22.8791 189.988 23.5964 188.794 24.1041C187.599 24.5897 186.224 24.8325 184.666 24.8325Z" fill="#333333"/>
<path d="M164.339 6.48951C165.704 6.48951 166.92 6.77646 167.986 7.35036C169.074 7.90219 169.928 8.76305 170.546 9.93292C171.165 11.0807 171.474 12.5596 171.474 14.3696V24.5674H166.483V15.1643C166.483 13.7295 166.173 12.67 165.555 11.9857C164.958 11.3015 164.104 10.9593 162.995 10.9593C162.206 10.9593 161.491 11.1359 160.851 11.4891C160.233 11.8202 159.742 12.3389 159.38 13.0452C159.038 13.7516 158.868 14.6566 158.868 15.7602V24.5674H153.876V0H158.868V11.6877L157.748 10.1978C158.366 9.00585 159.252 8.08981 160.404 7.44969C161.555 6.80957 162.867 6.48951 164.339 6.48951Z" fill="#333333"/>
<path d="M139.089 24.5674V5.76111H131.922V1.39062H151.44V5.76111H144.273V24.5674H139.089Z" fill="#333333"/>
<path d="M113.395 24.8325C111.432 24.8325 109.705 24.4352 108.212 23.6406C106.74 22.846 105.599 21.7644 104.788 20.3958C103.978 19.0052 103.572 17.427 103.572 15.6611C103.572 13.8732 103.967 12.295 104.756 10.9264C105.567 9.53584 106.665 8.45426 108.052 7.6817C109.438 6.88706 111.006 6.48975 112.755 6.48975C114.44 6.48975 115.955 6.86499 117.298 7.61548C118.663 8.34389 119.741 9.4034 120.53 10.794C121.319 12.1625 121.714 13.807 121.714 15.7274C121.714 15.926 121.703 16.1578 121.682 16.4227C121.66 16.6655 121.639 16.8972 121.618 17.118H107.636V14.105H118.994L117.074 14.9989C117.074 14.0719 116.893 13.2662 116.53 12.5819C116.168 11.8977 115.667 11.3679 115.027 10.9927C114.387 10.5954 113.64 10.3967 112.787 10.3967C111.934 10.3967 111.177 10.5954 110.515 10.9927C109.875 11.3679 109.374 11.9087 109.012 12.615C108.649 13.2993 108.468 14.116 108.468 15.0652V15.8598C108.468 16.831 108.67 17.6919 109.075 18.4424C109.502 19.1708 110.089 19.7336 110.835 20.131C111.603 20.5062 112.499 20.6938 113.523 20.6938C114.44 20.6938 115.24 20.5504 115.923 20.2634C116.626 19.9764 117.266 19.546 117.842 18.9721L120.498 21.952C119.709 22.8791 118.717 23.5964 117.522 24.1041C116.328 24.5897 114.952 24.8325 113.395 24.8325Z" fill="#333333"/>
<path d="M93.6454 24.8325C92.1736 24.8325 90.7551 24.656 89.39 24.3028C88.0462 23.9275 86.9797 23.464 86.1904 22.9122L87.8542 19.2039C88.6434 19.7116 89.5713 20.131 90.6378 20.4621C91.7257 20.7711 92.7922 20.9256 93.8374 20.9256C94.9892 20.9256 95.7998 20.7821 96.269 20.4952C96.7596 20.2082 97.0049 19.8109 97.0049 19.3032C97.0049 18.8838 96.8129 18.5748 96.429 18.3761C96.0664 18.1554 95.5758 17.9899 94.9572 17.8795C94.3386 17.7691 93.6561 17.6588 92.9095 17.5484C92.1843 17.438 91.4484 17.2946 90.7018 17.118C89.9552 16.9193 89.2727 16.6324 88.6541 16.2571C88.0355 15.8819 87.5342 15.3742 87.1503 14.7341C86.7877 14.0939 86.6064 13.2662 86.6064 12.2508C86.6064 11.1251 86.9157 10.1318 87.5342 9.27096C88.1742 8.41011 89.0914 7.73688 90.2859 7.25127C91.4804 6.74359 92.9095 6.48975 94.5733 6.48975C95.7464 6.48975 96.9409 6.62218 98.1568 6.88706C99.3726 7.15194 100.386 7.53822 101.196 8.0459L99.5326 11.7211C98.7007 11.2134 97.8581 10.8713 97.0049 10.6947C96.173 10.496 95.3625 10.3967 94.5733 10.3967C93.4641 10.3967 92.6535 10.5512 92.1416 10.8602C91.6297 11.1693 91.3737 11.5666 91.3737 12.0522C91.3737 12.4936 91.555 12.8247 91.9176 13.0455C92.3016 13.2662 92.8028 13.4428 93.4214 13.5752C94.04 13.7077 94.7119 13.8291 95.4371 13.9394C96.1837 14.0277 96.9303 14.1712 97.6768 14.3699C98.4234 14.5685 99.0953 14.8555 99.6925 15.2307C100.311 15.5839 100.812 16.0805 101.196 16.7207C101.58 17.3387 101.772 18.1554 101.772 19.1708C101.772 20.2744 101.452 21.2567 100.812 22.1175C100.172 22.9563 99.2446 23.6185 98.0288 24.1041C96.8343 24.5897 95.3731 24.8325 93.6454 24.8325Z" fill="#333333"/>
<path d="M62.0753 24.5674L55.8682 6.75439H60.5715L65.7228 22.0842H63.4831L68.8584 6.75439H73.0818L78.297 22.0842H76.0573L81.3686 6.75439H85.784L79.5449 24.5674H74.7135L70.1382 11.4229H71.61L66.8746 24.5674H62.0753Z" fill="#333333"/>
<path d="M45.834 24.8325C43.9996 24.8325 42.3678 24.4352 40.9386 23.6406C39.5308 22.846 38.411 21.7644 37.5791 20.3958C36.7686 19.0052 36.3633 17.427 36.3633 15.6611C36.3633 13.8732 36.7686 12.295 37.5791 10.9264C38.411 9.53584 39.5308 8.45426 40.9386 7.6817C42.3678 6.88706 43.9996 6.48975 45.834 6.48975C47.647 6.48975 49.2682 6.88706 50.6973 7.6817C52.1264 8.45426 53.2463 9.52481 54.0568 10.8933C54.8674 12.2619 55.2726 13.8511 55.2726 15.6611C55.2726 17.427 54.8674 19.0052 54.0568 20.3958C53.2463 21.7644 52.1264 22.846 50.6973 23.6406C49.2682 24.4352 47.647 24.8325 45.834 24.8325ZM45.834 20.5945C46.6658 20.5945 47.4124 20.3958 48.0736 19.9985C48.7349 19.6012 49.2575 19.0383 49.6414 18.3099C50.0254 17.5594 50.2174 16.6765 50.2174 15.6611C50.2174 14.6237 50.0254 13.7408 49.6414 13.0124C49.2575 12.284 48.7349 11.7211 48.0736 11.3238C47.4124 10.9265 46.6658 10.7278 45.834 10.7278C45.0021 10.7278 44.2555 10.9265 43.5943 11.3238C42.933 11.7211 42.3998 12.284 41.9945 13.0124C41.6105 13.7408 41.4186 14.6237 41.4186 15.6611C41.4186 16.6765 41.6105 17.5594 41.9945 18.3099C42.3998 19.0383 42.933 19.6012 43.5943 19.9985C44.2555 20.3958 45.0021 20.5945 45.834 20.5945Z" fill="#333333"/>
<path d="M24.1133 24.5677V6.75462H28.8806V11.7873L28.2087 10.3305C28.7206 9.07231 29.5419 8.12316 30.6724 7.48304C31.8029 6.82084 33.1787 6.48975 34.7998 6.48975V11.2575C34.5865 11.2355 34.3945 11.2244 34.2239 11.2244C34.0532 11.2024 33.8719 11.1913 33.6799 11.1913C32.3148 11.1913 31.2056 11.5997 30.3524 12.4164C29.5205 13.211 29.1046 14.4582 29.1046 16.1578V24.5677H24.1133Z" fill="#333333"/>
<path d="M0 24.5674V1.39062H10.9425C13.7581 1.39062 15.8698 1.94245 17.2776 3.04611C18.7067 4.14977 19.4213 5.6066 19.4213 7.4166C19.4213 8.63062 19.1333 9.69013 18.5574 10.5951C17.9815 11.4781 17.1923 12.1623 16.1897 12.6479C15.1872 13.1335 14.0354 13.3764 12.7342 13.3764L13.3421 12.0189C14.7499 12.0189 15.9978 12.2617 17.0856 12.7473C18.1735 13.2108 19.016 13.9061 19.6133 14.8332C20.2318 15.7603 20.5411 16.897 20.5411 18.2435C20.5411 20.2301 19.7839 21.7862 18.2695 22.912C16.755 24.0156 14.526 24.5674 11.5824 24.5674H0ZM5.15128 20.5281H11.1984C12.5423 20.5281 13.5554 20.3073 14.238 19.8659C14.9419 19.4023 15.2939 18.6739 15.2939 17.6806C15.2939 16.7094 14.9419 15.992 14.238 15.5285C13.5554 15.0429 12.5423 14.8001 11.1984 14.8001H4.76733V10.8931H10.3026C11.5611 10.8931 12.5209 10.6724 13.1822 10.2309C13.8647 9.76739 14.206 9.07209 14.206 8.14501C14.206 7.24001 13.8647 6.56678 13.1822 6.12532C12.5209 5.66178 11.5611 5.43002 10.3026 5.43002H5.15128V20.5281Z" fill="#333333"/>
</svg>
